<?xml version="1.0" standalone="no"?>
<!DOCTYPE svg PUBLIC "-//W3C//DTD SVG 20010904//EN"
 "http://www.w3.org/TR/2001/REC-SVG-20010904/DTD/svg10.dtd">
<svg version="1.0" xmlns="http://www.w3.org/2000/svg"
 width="833.000000pt" height="833.000000pt" viewBox="0 0 833.000000 833.000000"
 preserveAspectRatio="xMidYMid meet">
<metadata>
Created by potrace 1.14, written by Peter Selinger 2001-2017
</metadata>
<g transform="translate(0.000000,833.000000) scale(0.100000,-0.100000)"
fill="#000000" stroke="none">
<path d="M3970 7206 l0 -1124 -257 -6 c-442 -12 -692 -33 -903 -77 -190 -39
-226 -71 -440 -392 -75 -111 -143 -203 -151 -205 -31 -6 -51 23 -58 83 -8 77
-37 100 -121 99 -65 -1 -103 -20 -158 -77 -28 -29 -33 -41 -30 -72 5 -64 37
-79 173 -83 96 -3 116 -7 131 -23 19 -21 24 -19 -74 -45 -86 -23 -170 -79
-274 -184 -135 -134 -133 -127 -133 -463 l0 -279 -28 -23 c-25 -19 -30 -32
-39 -103 -5 -45 -8 -242 -6 -439 l3 -358 28 -47 c15 -26 40 -56 57 -68 49 -35
159 -53 292 -47 101 3 124 8 171 31 30 14 62 37 69 49 8 12 18 55 22 96 3 41
8 76 9 78 2 1 569 0 1261 -4 l1257 -6 36 -54 c66 -100 188 -186 303 -212 58
-13 172 -13 230 0 76 17 172 71 233 131 l58 57 72 -35 c184 -87 381 -84 567 7
168 83 306 262 345 445 19 88 19 222 0 301 -18 78 -63 178 -107 239 -24 34
-29 48 -20 52 39 13 141 104 178 159 71 104 88 160 88 293 0 102 -3 123 -27
184 l-27 69 44 47 c74 79 82 179 22 268 -60 88 -172 118 -268 69 l-45 -23 14
46 c23 75 27 187 9 270 -47 222 -207 390 -426 446 l-71 19 -837 859 c-460 473
-906 931 -991 1018 -84 87 -159 158 -167 158 -12 0 -14 -172 -14 -1124z m316
139 c35 -24 46 -67 43 -160 -4 -81 -6 -88 -32 -111 -25 -22 -37 -24 -123 -24
-92 0 -97 1 -125 29 -28 29 -29 33 -29 126 0 93 1 97 29 126 28 28 33 29 123
29 66 0 100 -4 114 -15z m-5 -385 c34 -19 49 -64 49 -147 0 -43 -6 -89 -13
-103 -38 -76 -229 -82 -281 -9 -12 18 -16 47 -16 117 0 90 1 95 29 123 28 28
33 29 121 29 50 0 100 -5 111 -10z m1724 -761 c97 -18 179 -61 249 -131 102
-102 146 -209 146 -353 0 -144 -44 -251 -144 -350 -193 -193 -489 -188 -675
11 -100 107 -136 199 -135 344 2 149 46 251 151 351 69 66 141 106 227 124 77
17 108 18 181 4z m-2102 -376 l67 -6 0 -277 0 -278 -572 4 c-666 5 -876 9
-900 19 -15 6 -18 19 -18 69 1 110 61 235 161 337 111 112 256 135 849 138
190 0 375 -2 413 -6z m2767 -325 c78 -40 115 -151 76 -226 -34 -65 -116 -110
-179 -97 -84 18 -139 87 -139 175 1 132 125 207 242 148z m-309 -228 c26 -7
45 -22 63 -50 19 -28 44 -49 84 -68 47 -23 62 -36 84 -78 94 -175 19 -418
-157 -510 -54 -28 -55 -29 -82 -11 -102 67 -252 116 -350 117 -42 0 -42 0 -75
67 -30 62 -33 75 -33 163 0 89 2 100 35 165 l35 69 74 18 c87 21 161 54 216
97 44 34 53 36 106 21z m-862 -299 c114 -35 209 -131 247 -249 24 -77 16 -199
-18 -274 -35 -75 -104 -147 -175 -184 -53 -27 -67 -29 -163 -29 -96 0 -110 2
-158 28 -78 41 -135 98 -173 175 -32 63 -34 73 -34 167 0 91 3 106 31 165 83
173 265 256 443 201z m-3419 -54 c52 -18 113 -45 135 -60 105 -71 226 -313
187 -374 -23 -36 -120 -42 -302 -18 -134 18 -148 25 -208 116 -85 128 -123
274 -86 327 37 53 137 56 274 9z m1895 -412 l0 -60 -277 3 c-415 4 -768 -18
-768 -48 0 -14 90 -68 149 -91 146 -55 331 -83 641 -99 107 -5 210 -10 228
-10 l32 0 0 -60 0 -60 -117 0 c-359 0 -711 54 -880 134 -219 104 -250 260 -63
316 102 31 214 37 650 36 l405 -1 0 -60z m2157 15 c117 -36 238 -133 300 -240
96 -165 96 -385 0 -550 -62 -107 -183 -204 -300 -240 -78 -24 -203 -26 -287
-5 -164 43 -307 181 -363 350 -23 71 -34 174 -24 229 7 38 9 39 69 56 160 44
298 184 343 350 7 25 14 51 16 58 6 20 170 16 246 -8z m-3928 -502 c32 -121
37 -150 26 -163 -15 -18 -44 -20 -57 -2 -17 20 -77 282 -70 301 5 12 16 16 34
14 27 -3 29 -8 67 -150z m86 100 c15 -36 70 -264 70 -291 0 -26 -19 -40 -38
-28 -19 12 -91 305 -80 325 13 23 37 20 48 -6z m2980 0 l55 -14 7 -120 c9
-173 59 -304 158 -416 l41 -47 -35 -39 c-46 -50 -135 -97 -211 -111 -201 -36
-398 109 -435 320 -32 183 77 370 250 433 48 17 83 16 170 -6z"/>
<path d="M3644 7342 c-35 -28 -44 -56 -44 -139 0 -133 46 -172 188 -160 52 4
69 10 93 33 29 27 29 29 29 135 0 145 -4 149 -144 149 -81 0 -105 -4 -122 -18z"/>
<path d="M3641 6949 c-32 -30 -41 -61 -41 -140 0 -116 40 -159 148 -159 74 0
109 10 137 38 23 23 25 31 25 124 0 97 -1 100 -29 129 -28 28 -33 29 -123 29
-82 0 -97 -3 -117 -21z"/>
<path d="M5945 6857 c-44 -44 -53 -93 -29 -143 52 -104 172 -106 228 -3 26 48
15 102 -29 146 -29 29 -39 33 -85 33 -46 0 -56 -4 -85 -33z m140 -30 c57 -49
21 -147 -54 -147 -49 0 -81 32 -81 82 0 77 78 114 135 65z"/>
<path d="M6326 6670 c-44 -14 -93 -66 -105 -114 -19 -75 21 -158 89 -186 49
-20 125 -8 162 26 59 56 72 119 37 190 -32 67 -114 104 -183 84z m97 -51 c26
-12 54 -53 57 -84 5 -48 -2 -69 -35 -102 -33 -33 -39 -35 -82 -30 -37 4 -54
12 -75 36 -83 93 21 232 135 180z"/>
<path d="M6606 6195 c-80 -28 -126 -96 -126 -186 0 -68 33 -126 90 -158 35
-19 52 -23 105 -19 53 3 71 9 101 34 51 41 76 92 76 153 -1 87 -48 151 -131
179 -43 15 -67 14 -115 -3z m139 -55 c64 -40 85 -137 42 -201 -52 -79 -159
-91 -225 -26 -30 30 -36 44 -39 89 -3 41 1 60 16 86 44 69 139 93 206 52z"/>
<path d="M211 2887 c-16 -20 -16 -1864 0 -1883 15 -18 179 -20 197 -2 9 9 12
123 12 450 l0 438 430 0 430 0 0 -433 c0 -509 -11 -467 118 -467 60 0 85 4 96
16 14 14 16 113 16 939 0 826 -2 925 -16 939 -24 25 -175 23 -197 -2 -15 -17
-17 -59 -17 -400 l0 -382 -430 0 -430 0 0 388 c0 288 -3 391 -12 400 -17 17
-182 16 -197 -1z"/>
<path d="M2130 2881 c-14 -27 -14 -1845 0 -1872 9 -17 22 -19 105 -19 83 0 96
2 105 19 7 13 10 323 10 936 0 613 -3 923 -10 936 -9 17 -22 19 -105 19 -83 0
-96 -2 -105 -19z"/>
<path d="M2997 2888 c-9 -7 -21 -26 -27 -41 -16 -44 -14 -1794 3 -1827 12 -23
18 -25 98 -28 73 -2 88 0 102 16 15 17 17 83 19 791 l3 772 189 -402 c139
-293 196 -405 215 -417 19 -13 50 -17 134 -17 l110 0 25 31 c13 17 107 206
208 420 l184 389 0 -770 c0 -681 2 -773 16 -793 14 -20 24 -22 99 -22 78 0 86
2 100 23 14 21 15 129 13 936 l-3 913 -24 19 c-33 27 -238 28 -269 2 -11 -10
-104 -198 -207 -418 -103 -220 -199 -425 -214 -455 -47 -98 -40 -108 -278 400
-117 250 -223 463 -234 473 -17 14 -41 17 -133 17 -74 0 -118 -4 -129 -12z"/>
<path d="M5110 2881 c-7 -13 -10 -323 -10 -936 0 -613 3 -923 10 -936 9 -17
22 -19 105 -19 83 0 96 2 105 19 14 27 14 1845 0 1872 -9 17 -22 19 -105 19
-83 0 -96 -2 -105 -19z"/>
<path d="M5952 2888 c-17 -17 -17 -1869 0 -1886 17 -17 182 -16 197 1 7 10 12
149 13 453 l3 439 349 -435 c191 -239 357 -443 368 -453 17 -14 40 -17 144
-17 126 0 130 1 125 38 -1 7 -173 222 -382 478 -345 422 -379 467 -366 482 8
9 180 208 381 442 261 301 366 430 364 445 -3 19 -11 20 -121 23 -113 3 -118
2 -140 -22 -12 -13 -177 -209 -367 -434 -190 -226 -348 -411 -352 -411 -5 -1
-8 189 -8 422 0 316 -3 426 -12 435 -16 16 -180 16 -196 0z"/>
<path d="M7690 2881 c-7 -13 -10 -323 -10 -936 0 -613 3 -923 10 -936 9 -17
22 -19 105 -19 83 0 96 2 105 19 14 27 14 1845 0 1872 -9 17 -22 19 -105 19
-83 0 -96 -2 -105 -19z"/>
</g>
</svg>
